<?xml version="1.0" encoding="UTF-8" standalone="no"?>
<!-- Created with Inkscape (http://www.inkscape.org/) -->

<svg
   xmlns:dc="http://purl.org/dc/elements/1.1/"
   xmlns:cc="http://creativecommons.org/ns#"
   xmlns:rdf="http://www.w3.org/1999/02/22-rdf-syntax-ns#"
   xmlns:svg="http://www.w3.org/2000/svg"
   xmlns="http://www.w3.org/2000/svg"
   xmlns:sodipodi="http://sodipodi.sourceforge.net/DTD/sodipodi-0.dtd"
   xmlns:inkscape="http://www.inkscape.org/namespaces/inkscape"
   width="3.625in"
   height="2.125in"
   viewBox="0 0 326.25001 191.24999"
   id="svg2"
   version="1.1"
   inkscape:version="0.91 r13725"
   sodipodi:docname="back_side_blue_orange_2.svg"
   inkscape:export-filename="/home/leonardo/WCRS/business_card/back_side_blue_orange.png"
   inkscape:export-xdpi="300"
   inkscape:export-ydpi="300">
  <defs
     id="defs4" />
  <sodipodi:namedview
     id="base"
     pagecolor="#5e54ff"
     bordercolor="#666666"
     borderopacity="1.0"
     inkscape:pageopacity="1"
     inkscape:pageshadow="2"
     inkscape:zoom="1"
     inkscape:cx="90.720329"
     inkscape:cy="110.86881"
     inkscape:document-units="px"
     inkscape:current-layer="layer5"
     showgrid="false"
     units="in"
     inkscape:window-width="1278"
     inkscape:window-height="781"
     inkscape:window-x="0"
     inkscape:window-y="17"
     inkscape:window-maximized="0"
     showguides="false" />
  <metadata
     id="metadata7">
    <rdf:RDF>
      <cc:Work
         rdf:about="">
        <dc:format>image/svg+xml</dc:format>
        <dc:type
           rdf:resource="http://purl.org/dc/dcmitype/StillImage" />
        <dc:title></dc:title>
      </cc:Work>
    </rdf:RDF>
  </metadata>
  <g
     inkscape:label="background"
     inkscape:groupmode="layer"
     id="layer1"
     transform="translate(0,-861.11224)">
    <rect
       style="opacity:1;fill:#a09bff;fill-opacity:1;fill-rule:nonzero;stroke:none;stroke-width:1;stroke-linecap:butt;stroke-linejoin:round;stroke-miterlimit:4;stroke-dasharray:none;stroke-opacity:1"
       id="rect4196"
       width="437"
       height="313"
       x="-55"
       y="787.36224" />
  </g>
  <g
     inkscape:groupmode="layer"
     id="layer5"
     inkscape:label="gears"
     style="display:inline"
     transform="translate(0,-0.01776053)">
    <g
       id="g3625"
       transform="matrix(0.5,-0.8660254,0.8660254,0.5,-823.76986,-250.81084)"
       style="fill:#ff9218;fill-opacity:1;stroke:none;stroke-width:0.1;stroke-miterlimit:4;stroke-dasharray:none;stroke-opacity:1">
      <path
         id="path3336"
         transform="translate(0,861.09448)"
         d="M 99.953125,10.289062 A 81.528404,81.178619 0 0 0 18.425781,91.46875 81.528404,81.178619 0 0 0 99.953125,172.64648 81.528404,81.178619 0 0 0 181.48242,91.46875 81.528404,81.178619 0 0 0 99.953125,10.289062 Z M 100,16.267578 a 75,75 0 0 1 33.02148,7.806641 l -30.2871,52.458984 A 15,15 0 0 0 100,76.267578 15,15 0 0 0 97.269531,76.541016 L 66.960938,24.042969 A 75,75 0 0 1 100,16.267578 Z m -41.728516,12.726563 30.34375,52.554687 a 15,15 0 0 0 -2.738281,4.71875 l -60.701172,0 A 75,75 0 0 1 58.271484,28.994141 Z m 83.431636,0.04297 A 75,75 0 0 1 174.75,86.267578 l -60.625,0 a 15,15 0 0 0 -2.74023,-4.71875 L 141.70312,29.037109 Z M 100,81.267578 a 10,10 0 0 1 10,10 10,10 0 0 1 -10,10.000002 10,10 0 0 1 -10,-10.000002 10,10 0 0 1 10,-10 z m -74.75,15 60.625,0 a 15,15 0 0 0 2.740234,4.720702 L 58.298828,153.49805 A 75,75 0 0 1 25.25,96.267578 Z m 88.87305,0 60.70117,0 a 75,75 0 0 1 -33.09766,57.273442 l -30.34179,-52.55469 a 15,15 0 0 0 2.73828,-4.718752 z m -11.39453,9.726562 30.30859,52.49805 A 75,75 0 0 1 100,166.26758 75,75 0 0 1 66.978516,158.46289 L 97.267578,106.00195 A 15,15 0 0 0 100,106.26758 a 15,15 0 0 0 2.72852,-0.27344 z"
         style="fill:#ff9218;fill-opacity:1;stroke:none;stroke-width:0.1;stroke-miterlimit:4;stroke-dasharray:none;stroke-opacity:1"
         inkscape:connector-curvature="0" />
      <path
         inkscape:connector-curvature="0"
         id="path3363"
         d="M 112.18268,873.00802 87.72416,872.86569 100.08032,852.3622 Z"
         inkscape:transform-center-y="-110.61597"
         inkscape:transform-center-x="0.066462136"
         style="fill:#ff9218;fill-opacity:1;stroke:none;stroke-width:0.1;stroke-miterlimit:4;stroke-dasharray:none;stroke-opacity:1" />
      <path
         style="fill:#ff9218;fill-opacity:1;stroke:none;stroke-width:0.1;stroke-miterlimit:4;stroke-dasharray:none;stroke-opacity:1"
         inkscape:transform-center-x="-26.945087"
         inkscape:transform-center-y="-104.26048"
         d="m 133.71133,879.4282 -23.47164,-6.84957 17.55337,-16.31802 z"
         id="path3391"
         inkscape:connector-curvature="0" />
      <path
         inkscape:connector-curvature="0"
         id="path3393"
         d="m 152.62872,891.50831 -20.66625,-13.02613 21.39062,-10.86827 z"
         inkscape:transform-center-y="-89.827245"
         inkscape:transform-center-x="-52.313267"
         style="fill:#ff9218;fill-opacity:1;stroke:none;stroke-width:0.1;stroke-miterlimit:4;stroke-dasharray:none;stroke-opacity:1" />
      <path
         style="fill:#ff9218;fill-opacity:1;stroke:none;stroke-width:0.1;stroke-miterlimit:4;stroke-dasharray:none;stroke-opacity:1"
         inkscape:transform-center-x="-77.257957"
         inkscape:transform-center-y="-68.434495"
         d="m 167.4692,908.31243 -16.25971,-18.19347 23.5706,-4.5765 z"
         id="path3395"
         inkscape:connector-curvature="0" />
      <path
         inkscape:connector-curvature="0"
         id="path3397"
         d="m 177.08299,928.53863 -10.59343,-21.95125 23.9244,2.06986 z"
         inkscape:transform-center-y="-43.014555"
         inkscape:transform-center-x="-96.216962"
         style="fill:#ff9218;fill-opacity:1;stroke:none;stroke-width:0.1;stroke-miterlimit:4;stroke-dasharray:none;stroke-opacity:1" />
      <path
         style="fill:#ff9218;fill-opacity:1;stroke:none;stroke-width:0.1;stroke-miterlimit:4;stroke-dasharray:none;stroke-opacity:1"
         inkscape:transform-center-x="-107.7214"
         inkscape:transform-center-y="-17.080775"
         d="m 180.72524,950.61984 -4.1064,-24.00831 22.42462,8.55584 z"
         id="path3399"
         inkscape:connector-curvature="0" />
      <path
         inkscape:connector-curvature="0"
         id="path3401"
         d="m 178.11377,972.84531 2.69876,-24.2053 L 200,963.01896 Z"
         inkscape:transform-center-y="10.17637"
         inkscape:transform-center-x="-109.22484"
         style="fill:#ff9218;fill-opacity:1;stroke:none;stroke-width:0.1;stroke-miterlimit:4;stroke-dasharray:none;stroke-opacity:1" />
      <path
         style="fill:#ff9218;fill-opacity:1;stroke:none;stroke-width:0.1;stroke-miterlimit:4;stroke-dasharray:none;stroke-opacity:1"
         inkscape:transform-center-x="-99.747525"
         inkscape:transform-center-y="36.6451"
         d="m 169.45089,993.49309 9.29485,-22.52696 14.46373,19.08802 z"
         id="path3403"
         inkscape:connector-curvature="0" />
      <path
         inkscape:connector-curvature="0"
         id="path3405"
         d="m 155.40778,1010.9634 15.1708,-19.1033 8.61939,22.3183 z"
         inkscape:transform-center-y="62.254835"
         inkscape:transform-center-x="-82.542105"
         style="fill:#ff9218;fill-opacity:1;stroke:none;stroke-width:0.1;stroke-miterlimit:4;stroke-dasharray:none;stroke-opacity:1" />
      <path
         style="fill:#ff9218;fill-opacity:1;stroke:none;stroke-width:0.1;stroke-miterlimit:4;stroke-dasharray:none;stroke-opacity:1"
         inkscape:transform-center-x="-58.9416"
         inkscape:transform-center-y="85.159385"
         d="m 137.07246,1023.9028 19.87138,-14.1996 2.10722,23.8193 z"
         id="path3407"
         inkscape:connector-curvature="0" />
      <path
         inkscape:connector-curvature="0"
         id="path3409"
         d="m 115.86547,1031.3087 23.0324,-8.1958 -4.5682,23.475 z"
         inkscape:transform-center-y="101.46608"
         inkscape:transform-center-x="-33.576095"
         style="fill:#ff9218;fill-opacity:1;stroke:none;stroke-width:0.1;stroke-miterlimit:4;stroke-dasharray:none;stroke-opacity:1" />
      <path
         style="fill:#ff9218;fill-opacity:1;stroke:none;stroke-width:0.1;stroke-miterlimit:4;stroke-dasharray:none;stroke-opacity:1"
         inkscape:transform-center-x="-6.9015526"
         inkscape:transform-center-y="109.91153"
         d="m 93.429856,1032.6073 24.408964,-1.5569 -10.8897,21.3118 z"
         id="path3411"
         inkscape:connector-curvature="0" />
      <path
         inkscape:connector-curvature="0"
         id="path3413"
         d="m 71.503875,1027.6981 23.894397,5.2025 -16.367497,17.4976 z"
         inkscape:transform-center-y="106.63708"
         inkscape:transform-center-x="20.307694"
         style="fill:#ff9218;fill-opacity:1;stroke:none;stroke-width:0.1;stroke-miterlimit:4;stroke-dasharray:none;stroke-opacity:1" />
      <path
         style="fill:#ff9218;fill-opacity:1;stroke:none;stroke-width:0.1;stroke-miterlimit:4;stroke-dasharray:none;stroke-opacity:1"
         inkscape:transform-center-x="45.943572"
         inkscape:transform-center-y="94.14173"
         d="m 51.786257,1016.9613 21.528588,11.559 -20.577212,12.3275 z"
         id="path3415"
         inkscape:connector-curvature="0" />
      <path
         inkscape:connector-curvature="0"
         id="path3417"
         d="m 35.804671,1001.2289 17.494803,17.0199 -23.192658,6.2024 z"
         inkscape:transform-center-y="74.35263"
         inkscape:transform-center-x="71.514299"
         style="fill:#ff9218;fill-opacity:1;stroke:none;stroke-width:0.1;stroke-miterlimit:4;stroke-dasharray:none;stroke-opacity:1" />
      <path
         style="fill:#ff9218;fill-opacity:1;stroke:none;stroke-width:0.1;stroke-miterlimit:4;stroke-dasharray:none;stroke-opacity:1"
         inkscape:transform-center-x="27.072859"
         inkscape:transform-center-y="-104.35102"
         d="m 89.710756,872.74519 -23.55044,6.57594 6.201622,-23.10043 z"
         id="path3435"
         inkscape:connector-curvature="0" />
      <path
         inkscape:connector-curvature="0"
         id="path3437"
         d="M 68.036596,878.66007 47.218845,891.44479 46.785449,867.53717 Z"
         inkscape:transform-center-y="-89.91364"
         inkscape:transform-center-x="52.247537"
         style="fill:#ff9218;fill-opacity:1;stroke:none;stroke-width:0.1;stroke-miterlimit:4;stroke-dasharray:none;stroke-opacity:1" />
      <path
         style="fill:#ff9218;fill-opacity:1;stroke:none;stroke-width:0.1;stroke-miterlimit:4;stroke-dasharray:none;stroke-opacity:1"
         inkscape:transform-center-x="77.177604"
         inkscape:transform-center-y="-68.510055"
         d="m 48.839442,890.29438 -16.472175,18.003 -7.034836,-22.86254 z"
         id="path3439"
         inkscape:connector-curvature="0" />
      <path
         inkscape:connector-curvature="0"
         id="path3442"
         d="M 33.606623,906.74676 22.756233,928.57322 9.6649919,908.52708 Z"
         inkscape:transform-center-y="-42.89509"
         inkscape:transform-center-x="96.128212"
         style="fill:#ff9218;fill-opacity:1;stroke:none;stroke-width:0.1;stroke-miterlimit:4;stroke-dasharray:none;stroke-opacity:1" />
      <path
         style="fill:#ff9218;fill-opacity:1;stroke:none;stroke-width:0.1;stroke-miterlimit:4;stroke-dasharray:none;stroke-opacity:1"
         inkscape:transform-center-x="107.63113"
         inkscape:transform-center-y="-16.949875"
         d="M 23.518327,926.74251 19.130374,950.7014 0.99699296,935.02477 Z"
         id="path3444"
         inkscape:connector-curvature="0" />
      <path
         inkscape:connector-curvature="0"
         id="path3446"
         d="M 19.35616,948.73245 21.770608,972.9675 3.5604748e-8,962.87495 Z"
         inkscape:transform-center-y="10.30856"
         inkscape:transform-center-x="109.31442"
         style="fill:#ff9218;fill-opacity:1;stroke:none;stroke-width:0.1;stroke-miterlimit:4;stroke-dasharray:none;stroke-opacity:1" />
      <path
         style="fill:#ff9218;fill-opacity:1;stroke:none;stroke-width:0.1;stroke-miterlimit:4;stroke-dasharray:none;stroke-opacity:1"
         inkscape:transform-center-x="99.837338"
         inkscape:transform-center-y="36.76833"
         d="M 21.442594,971.01286 30.472379,993.64643 6.7512572,989.9199 Z"
         id="path3448"
         inkscape:connector-curvature="0" />
    </g>
    <g
       id="g3666"
       transform="translate(177,-919.09448)"
       style="fill:#ff9218;fill-opacity:1;stroke:none;stroke-width:0.1;stroke-miterlimit:4;stroke-dasharray:none;stroke-opacity:1">
      <path
         id="circle3439"
         transform="translate(0,861.09448)"
         d="M 100.31445,4.2792969 A 86.54184,86.746574 0 0 0 13.771484,91.025391 86.54184,86.746574 0 0 0 100.31445,177.77344 86.54184,86.746574 0 0 0 186.85547,91.025391 86.54184,86.746574 0 0 0 100.31445,4.2792969 Z M 99.824219,16.267578 A 75,75 0 0 1 132.8457,24.074219 L 102.55859,76.533203 A 15,15 0 0 0 99.824219,76.267578 15,15 0 0 0 97.09375,76.541016 L 66.785156,24.042969 a 75,75 0 0 1 33.039063,-7.775391 z m -41.728516,12.726563 30.34375,52.554687 a 15,15 0 0 0 -2.738281,4.71875 L 25,86.267578 A 75,75 0 0 1 58.095703,28.994141 Z m 83.431637,0.04297 a 75,75 0 0 1 33.04688,57.230469 l -60.625,0 a 15,15 0 0 0 -2.74024,-4.71875 L 141.52734,29.037109 Z M 99.824219,81.267578 a 10,10 0 0 1 10.000001,10 10,10 0 0 1 -10.000001,10.000002 10,10 0 0 1 -10,-10.000002 10,10 0 0 1 10,-10 z m -74.75,15 60.625,0 a 15,15 0 0 0 2.740234,4.720702 L 58.123047,153.49805 A 75,75 0 0 1 25.074219,96.267578 Z m 88.873051,0 60.70117,0 a 75,75 0 0 1 -33.09766,57.273442 l -30.3418,-52.55469 a 15,15 0 0 0 2.73829,-4.718752 z m -11.39454,9.726562 30.3086,52.49805 a 75,75 0 0 1 -33.037111,7.77539 75,75 0 0 1 -33.021485,-7.80469 l 30.289063,-52.46094 a 15,15 0 0 0 2.732422,0.26563 15,15 0 0 0 2.728511,-0.27344 z"
         style="fill:#ff9218;fill-opacity:1;stroke:none;stroke-width:0.1;stroke-miterlimit:4;stroke-dasharray:none;stroke-opacity:1"
         inkscape:connector-curvature="0" />
      <rect
         inkscape:transform-center-y="-102.47525"
         y="852.36218"
         x="87.332222"
         height="21.686644"
         width="25.962551"
         id="rect3501"
         style="fill:#ff9218;fill-opacity:1;stroke:none;stroke-width:0.1;stroke-miterlimit:4;stroke-dasharray:none;stroke-opacity:1" />
      <rect
         inkscape:transform-center-x="54.303602"
         transform="matrix(0.84748461,-0.53081996,0.52901889,0.84861005,0,0)"
         style="fill:#ff9218;fill-opacity:1;stroke:none;stroke-width:0.10000011;stroke-miterlimit:4;stroke-dasharray:none;stroke-opacity:1"
         id="rect3503"
         width="25.979815"
         height="21.672283"
         x="-431.54233"
         y="760.46881"
         inkscape:transform-center-y="-86.903911" />
      <rect
         inkscape:transform-center-y="-44.92218"
         y="407.23254"
         x="-824.3009"
         height="21.645306"
         width="26.01218"
         id="rect3505"
         style="fill:#ff9218;fill-opacity:1;stroke:none;stroke-width:0.10000009;stroke-miterlimit:4;stroke-dasharray:none;stroke-opacity:1"
         transform="matrix(0.43753479,-0.89920148,0.89838523,0.43920836,0,0)"
         inkscape:transform-center-x="92.104122" />
      <rect
         inkscape:transform-center-x="101.91385"
         transform="matrix(-0.10428444,-0.99454751,0.99449616,-0.10477304,0,0)"
         style="fill:#ff9218;fill-opacity:1;stroke:none;stroke-width:0.10000001;stroke-miterlimit:4;stroke-dasharray:none;stroke-opacity:1"
         id="rect3507"
         width="26.023302"
         height="21.636019"
         x="-970.38104"
         y="-99.026848"
         inkscape:transform-center-y="10.711609" />
      <rect
         inkscape:transform-center-y="63.090081"
         y="-605.78412"
         x="-824.44409"
         height="21.654875"
         width="26.000708"
         id="rect3509"
         style="fill:#ff9218;fill-opacity:1;stroke:none;stroke-width:0.10000013;stroke-miterlimit:4;stroke-dasharray:none;stroke-opacity:1"
         transform="matrix(-0.61475797,-0.78871581,0.78730427,-0.61656467,0,0)"
         inkscape:transform-center-x="80.751589" />
      <rect
         inkscape:transform-center-x="35.048583"
         transform="matrix(-0.93943237,-0.34273433,0.34130706,-0.93995186,0,0)"
         style="fill:#ff9218;fill-opacity:1;stroke:none;stroke-width:0.10000006;stroke-miterlimit:4;stroke-dasharray:none;stroke-opacity:1"
         id="rect3511"
         width="25.969744"
         height="21.680662"
         x="-432.23343"
         y="-959.76257"
         inkscape:transform-center-y="96.295225" />
      <rect
         inkscape:transform-center-y="100.23589"
         y="-1051.8292"
         x="86.391518"
         height="21.684433"
         width="25.96521"
         id="rect3513"
         style="fill:#ff9218;fill-opacity:1;stroke:none;stroke-width:0.10000002;stroke-miterlimit:4;stroke-dasharray:none;stroke-opacity:1"
         transform="matrix(-0.97804747,0.20838221,-0.20744212,-0.97824729,0,0)"
         inkscape:transform-center-x="-21.305801" />
      <rect
         inkscape:transform-center-x="-71.185282"
         transform="matrix(-0.71851906,0.69550727,-0.69380855,-0.72015949,0,0)"
         style="fill:#ff9218;fill-opacity:1;stroke:none;stroke-width:0.10000014;stroke-miterlimit:4;stroke-dasharray:none;stroke-opacity:1"
         id="rect3515"
         width="25.992208"
         height="21.661959"
         x="575.33844"
         y="-853.49591"
         inkscape:transform-center-y="73.714513" />
      <rect
         inkscape:transform-center-y="24.791004"
         y="-426.68463"
         x="886.35809"
         height="21.638458"
         width="26.020382"
         id="rect3517"
         style="fill:#ff9218;fill-opacity:1;stroke:none;stroke-width:0.10000003;stroke-miterlimit:4;stroke-dasharray:none;stroke-opacity:1"
         transform="matrix(-0.24138425,0.97042962,-0.97016125,-0.24246062,0,0)"
         inkscape:transform-center-x="-99.431269" />
      <rect
         inkscape:transform-center-x="-97.459724"
         transform="matrix(0.30835707,0.95127068,-0.95084149,0.309678,0,0)"
         style="fill:#ff9218;fill-opacity:1;stroke:none;stroke-width:0.10000005;stroke-miterlimit:4;stroke-dasharray:none;stroke-opacity:1"
         id="rect3519"
         width="26.018112"
         height="21.640352"
         x="923.35223"
         y="98.637283"
         inkscape:transform-center-y="-31.666589" />
      <rect
         inkscape:transform-center-y="-78.500592"
         y="564.42993"
         x="675.07617"
         height="21.66551"
         width="25.987946"
         id="rect3521"
         style="fill:#ff9218;fill-opacity:1;stroke:none;stroke-width:0.10000014;stroke-miterlimit:4;stroke-dasharray:none;stroke-opacity:1"
         transform="matrix(0.76529587,0.64367868,-0.64189607,0.76679165,0,0)"
         inkscape:transform-center-x="-65.869777" />
    </g>
  </g>
  <g
     inkscape:groupmode="layer"
     id="layer2"
     inkscape:label="Logo"
     style="display:inline"
     transform="translate(0,-0.01776053)">
    <path
       style="fill:#10089a;fill-opacity:1;fill-rule:evenodd;stroke:#ffffff;stroke-width:1;stroke-linecap:butt;stroke-linejoin:miter;stroke-miterlimit:4;stroke-dasharray:none;stroke-opacity:1"
       d="m 156.91113,17.97584 c -45.80947,-0.492017 -79.930656,3.6429 -108.347235,25.35731 -21.746026,16.61713 -16.127747,36.13954 -7.460937,60.13114 9.298476,25.74023 11.22394,43.43353 23.065232,40.40593 12.918089,-3.3029 4.800572,-29.95497 18.907001,-30.21659 14.106429,-0.26162 6.603623,26.71899 21.597379,30.55289 14.57428,2.5696 9.30529,-40.98695 20.07806,-55.70485 16.98171,-23.20065 49.92066,-13.58992 44.34407,-4.98789 -2.97089,4.58267 -31.26616,-14.18759 -42.67233,18.85182 -16.13313,46.73172 51.79771,48.10862 60.90988,34.51842 15.58686,-14.6855 2.94721,-46.66199 10.06618,-58.59399 4.80504,-8.05365 30.84648,-2.88536 30.96804,10.06365 0.185,19.70595 -18.18954,9.8853 -19.19016,30.67257 -1.69544,35.22177 94.05787,32.22777 87.09992,-2.39511 -3.84819,-19.14863 -40.77158,-16.6211 -39.62213,-33.76897 0.6977,-10.40853 34.37361,-0.706223 36.52335,-14.84627 4.94288,-32.512055 -66.31063,-49.2887 -136.26632,-50.04006 z m 0.20801,10.04006 c 57.90598,0.11783 122.92273,15.60468 126.0572,32.286 2.75296,14.65093 -40.17518,-0.56793 -36.80607,23.13198 3.50873,24.68212 46.49655,24.09066 36.76422,40.62584 -9.48068,16.1076 -65.58239,15.7553 -66.37413,-5.27856 -0.44642,-11.85977 17.4315,-6.25637 19.11368,-29.93824 1.35571,-19.0859 -31.85659,-26.93579 -43.53574,-17.08164 -10.93596,9.22709 1.4341,43.77881 -10.06245,56.22564 -13.56242,14.6834 -57.07748,9.2332 -47.5556,-21.41724 8.94777,-28.80242 32.36412,-8.53295 40.38332,-18.03554 12.46676,-14.77286 -26.03836,-33.28301 -52.22568,-9.83023 -13.58694,12.16816 -9.16084,48.93591 -18.28777,48.52871 C 94.501679,126.78252 99.479207,100.79347 82.502647,101.97884 67.88055,102.99981 70.645243,124.22052 62.780701,127.22192 54.354518,130.43772 50.92869,107.87933 46.818918,93.18025 42.283979,76.96051 36.745881,66.02226 58.491909,49.40513 86.908485,27.69073 117.49926,27.93528 157.11914,28.0159 Z"
       id="path3473"
       inkscape:connector-curvature="0"
       sodipodi:nodetypes="ssssscssscssssssssssssssssssssssss" />
  </g>
  <g
     inkscape:groupmode="layer"
     id="layer3"
     inkscape:label="Text"
     style="display:inline"
     transform="translate(0,-0.01776053)">
    <g
       transform="translate(-2.285714,-11.42857)"
       style="font-style:normal;font-variant:normal;font-weight:normal;font-stretch:normal;font-size:22.5px;line-height:125%;font-family:sans-serif;-inkscape-font-specification:sans-serif;text-align:center;letter-spacing:0px;word-spacing:0px;text-anchor:middle;display:inline;fill:#10089a;fill-opacity:1;stroke:#ffffff;stroke-width:0.30000001;stroke-linecap:butt;stroke-linejoin:bevel;stroke-miterlimit:4;stroke-dasharray:none;stroke-opacity:0.76806084"
       id="flowRoot4297">
      <path
         d="m 29.734619,170.21958 4.053955,0 2.834473,11.92017 2.8125,-11.92017 4.075928,0 2.8125,11.92017 2.834472,-11.92017 4.020996,0 -3.867187,16.40259 -4.87793,0 -2.977295,-12.46948 -2.944336,12.46948 -4.877929,0 -3.900147,-16.40259 z"
         style="font-style:normal;font-variant:normal;font-weight:bold;font-stretch:normal;font-size:22.5px;line-height:125%;font-family:'DejaVu Sans';-inkscape-font-specification:'DejaVu Sans, Bold';text-align:center;writing-mode:lr-tb;text-anchor:middle;fill:#10089a;fill-opacity:1;stroke:#ffffff;stroke-width:0.30000001;stroke-linecap:butt;stroke-linejoin:bevel;stroke-miterlimit:4;stroke-dasharray:none;stroke-opacity:0.76806084"
         id="path3404"
         inkscape:connector-curvature="0" />
      <path
         d="m 67.274902,180.43687 0,1.1206 -9.195556,0 q 0.142822,1.38428 0.999756,2.07642 0.856933,0.69214 2.395019,0.69214 1.241455,0 2.537842,-0.36255 1.307373,-0.37354 2.680664,-1.12061 l 0,3.03223 q -1.395264,0.52734 -2.790527,0.79101 -1.395264,0.27466 -2.790528,0.27466 -3.339843,0 -5.196533,-1.69189 -1.845703,-1.70288 -1.845703,-4.76807 0,-3.01025 1.812744,-4.73511 1.823731,-1.72485 5.009766,-1.72485 2.90039,0 4.63623,1.74683 1.746826,1.74682 1.746826,4.66919 z m -4.042968,-1.30738 q 0,-1.1206 -0.65918,-1.80175 -0.648193,-0.69214 -1.702881,-0.69214 -1.142578,0 -1.856689,0.64819 -0.714112,0.63721 -0.889893,1.8457 l 5.108643,0 z"
         style="font-style:normal;font-variant:normal;font-weight:bold;font-stretch:normal;font-size:22.5px;line-height:125%;font-family:'DejaVu Sans';-inkscape-font-specification:'DejaVu Sans, Bold';text-align:center;writing-mode:lr-tb;text-anchor:middle;fill:#10089a;fill-opacity:1;stroke:#ffffff;stroke-width:0.30000001;stroke-linecap:butt;stroke-linejoin:bevel;stroke-miterlimit:4;stroke-dasharray:none;stroke-opacity:0.76806084"
         id="path3406"
         inkscape:connector-curvature="0" />
      <path
         d="m 89.467285,176.36094 q 0.74707,-1.14258 1.768799,-1.73584 1.032715,-0.60425 2.263184,-0.60425 2.120361,0 3.22998,1.30737 1.109619,1.30738 1.109619,3.80127 l 0,7.49268 -3.955078,0 0,-6.41602 q 0.01099,-0.14282 0.01099,-0.29663 0.01099,-0.15381 0.01099,-0.43945 0,-1.30737 -0.384522,-1.88965 -0.384521,-0.59326 -1.241455,-0.59326 -1.120605,0 -1.73584,0.92285 -0.604248,0.92285 -0.62622,2.66968 l 0,6.04248 -3.955079,0 0,-6.41602 q 0,-2.04345 -0.351562,-2.62573 -0.351563,-0.59326 -1.252441,-0.59326 -1.131592,0 -1.746827,0.93384 -0.615234,0.92285 -0.615234,2.6477 l 0,6.05347 -3.955078,0 0,-12.30469 3.955078,0 0,1.80176 q 0.725098,-1.0437 1.658936,-1.57105 0.944824,-0.52734 2.076416,-0.52734 1.274414,0 2.252197,0.61523 0.977783,0.61524 1.483154,1.72486 z"
         style="font-style:normal;font-variant:normal;font-weight:bold;font-stretch:normal;font-size:22.5px;line-height:125%;font-family:'DejaVu Sans';-inkscape-font-specification:'DejaVu Sans, Bold';text-align:center;writing-mode:lr-tb;text-anchor:middle;fill:#10089a;fill-opacity:1;stroke:#ffffff;stroke-width:0.30000001;stroke-linecap:butt;stroke-linejoin:bevel;stroke-miterlimit:4;stroke-dasharray:none;stroke-opacity:0.76806084"
         id="path3408"
         inkscape:connector-curvature="0" />
      <path
         d="m 107.04541,181.08506 q -1.23047,0 -1.85669,0.41748 -0.61523,0.41748 -0.61523,1.23047 0,0.74707 0.49438,1.17554 0.50537,0.41748 1.39526,0.41748 1.10962,0 1.86768,-0.79102 0.75806,-0.802 0.75806,-1.99951 l 0,-0.45044 -2.04346,0 z m 6.00952,-1.48316 0,7.02027 -3.96606,0 0,-1.82373 q -0.79102,1.1206 -1.77979,1.63696 -0.98877,0.50537 -2.406,0.50537 -1.91162,0 -3.10913,-1.10962 -1.18653,-1.1206 -1.18653,-2.90039 0,-2.1643 1.48316,-3.17505 1.49414,-1.01074 4.68017,-1.01074 l 2.31812,0 0,-0.30762 q 0,-0.93383 -0.73609,-1.3623 -0.73608,-0.43945 -2.29614,-0.43945 -1.26343,0 -2.35107,0.25268 -1.08765,0.25269 -2.02149,0.75806 l 0,-2.99927 q 1.26343,-0.30762 2.53784,-0.46142 1.27442,-0.1648 2.54883,-0.1648 3.32886,0 4.80103,1.31836 1.48315,1.30737 1.48315,4.26269 z"
         style="font-style:normal;font-variant:normal;font-weight:bold;font-stretch:normal;font-size:22.5px;line-height:125%;font-family:'DejaVu Sans';-inkscape-font-specification:'DejaVu Sans, Bold';text-align:center;writing-mode:lr-tb;text-anchor:middle;fill:#10089a;fill-opacity:1;stroke:#ffffff;stroke-width:0.30000001;stroke-linecap:butt;stroke-linejoin:bevel;stroke-miterlimit:4;stroke-dasharray:none;stroke-opacity:0.76806084"
         id="path3410"
         inkscape:connector-curvature="0" />
      <path
         d="m 116.73535,169.52744 3.93311,0 0,9.30542 4.52636,-4.51538 4.57032,0 -6.00952,5.64697 6.48193,6.65772 -4.76807,0 -4.80102,-5.13062 0,5.13062 -3.93311,0 0,-17.09473 z"
         style="font-style:normal;font-variant:normal;font-weight:bold;font-stretch:normal;font-size:22.5px;line-height:125%;font-family:'DejaVu Sans';-inkscape-font-specification:'DejaVu Sans, Bold';text-align:center;writing-mode:lr-tb;text-anchor:middle;fill:#10089a;fill-opacity:1;stroke:#ffffff;stroke-width:0.30000001;stroke-linecap:butt;stroke-linejoin:bevel;stroke-miterlimit:4;stroke-dasharray:none;stroke-opacity:0.76806084"
         id="path3412"
         inkscape:connector-curvature="0" />
      <path
         d="m 143.38818,180.43687 0,1.1206 -9.19555,0 q 0.14282,1.38428 0.99975,2.07642 0.85694,0.69214 2.39502,0.69214 1.24146,0 2.53784,-0.36255 1.30738,-0.37354 2.68067,-1.12061 l 0,3.03223 q -1.39527,0.52734 -2.79053,0.79101 -1.39526,0.27466 -2.79053,0.27466 -3.33984,0 -5.19653,-1.69189 -1.8457,-1.70288 -1.8457,-4.76807 0,-3.01025 1.81274,-4.73511 1.82373,-1.72485 5.00977,-1.72485 2.90039,0 4.63623,1.74683 1.74682,1.74682 1.74682,4.66919 z m -4.04297,-1.30738 q 0,-1.1206 -0.65917,-1.80175 -0.6482,-0.69214 -1.70289,-0.69214 -1.14257,0 -1.85669,0.64819 -0.71411,0.63721 -0.88989,1.8457 l 5.10864,0 z"
         style="font-style:normal;font-variant:normal;font-weight:bold;font-stretch:normal;font-size:22.5px;line-height:125%;font-family:'DejaVu Sans';-inkscape-font-specification:'DejaVu Sans, Bold';text-align:center;writing-mode:lr-tb;text-anchor:middle;fill:#10089a;fill-opacity:1;stroke:#ffffff;stroke-width:0.30000001;stroke-linecap:butt;stroke-linejoin:bevel;stroke-miterlimit:4;stroke-dasharray:none;stroke-opacity:0.76806084"
         id="path3414"
         inkscape:connector-curvature="0" />
      <path
         d="m 158.47241,170.82383 0,3.49365 4.05396,0 0,2.8125 -4.05396,0 0,5.21851 q 0,0.85693 0.34058,1.16455 0.34057,0.29663 1.35132,0.29663 l 2.02148,0 0,2.8125 -3.3728,0 q -2.3291,0 -3.30689,-0.9668 -0.96679,-0.97778 -0.96679,-3.30688 l 0,-5.21851 -1.95557,0 0,-2.8125 1.95557,0 0,-3.49365 3.9331,0 z"
         style="font-style:normal;font-variant:normal;font-weight:bold;font-stretch:normal;font-size:22.5px;line-height:125%;font-family:'DejaVu Sans';-inkscape-font-specification:'DejaVu Sans, Bold';text-align:center;writing-mode:lr-tb;text-anchor:middle;fill:#10089a;fill-opacity:1;stroke:#ffffff;stroke-width:0.30000001;stroke-linecap:butt;stroke-linejoin:bevel;stroke-miterlimit:4;stroke-dasharray:none;stroke-opacity:0.76806084"
         id="path3416"
         inkscape:connector-curvature="0" />
      <path
         d="m 177.31396,179.12949 0,7.49268 -3.95507,0 0,-1.21948 0,-4.49341 q 0,-1.61499 -0.0769,-2.21924 -0.0659,-0.60425 -0.2417,-0.88989 -0.23071,-0.38452 -0.62622,-0.59326 -0.39551,-0.21973 -0.90088,-0.21973 -1.23047,0 -1.93359,0.95581 -0.70313,0.94482 -0.70313,2.62573 l 0,6.05347 -3.9331,0 0,-17.09473 3.9331,0 0,6.5918 q 0.8899,-1.07666 1.88965,-1.58203 0.99976,-0.51636 2.20826,-0.51636 2.13134,0 3.22998,1.30737 1.10961,1.30738 1.10961,3.80127 z"
         style="font-style:normal;font-variant:normal;font-weight:bold;font-stretch:normal;font-size:22.5px;line-height:125%;font-family:'DejaVu Sans';-inkscape-font-specification:'DejaVu Sans, Bold';text-align:center;writing-mode:lr-tb;text-anchor:middle;fill:#10089a;fill-opacity:1;stroke:#ffffff;stroke-width:0.30000001;stroke-linecap:butt;stroke-linejoin:bevel;stroke-miterlimit:4;stroke-dasharray:none;stroke-opacity:0.76806084"
         id="path3418"
         inkscape:connector-curvature="0" />
      <path
         d="m 180.9834,174.31748 3.9331,0 0,12.30469 -3.9331,0 0,-12.30469 z m 0,-4.79004 3.9331,0 0,3.20801 -3.9331,0 0,-3.20801 z"
         style="font-style:normal;font-variant:normal;font-weight:bold;font-stretch:normal;font-size:22.5px;line-height:125%;font-family:'DejaVu Sans';-inkscape-font-specification:'DejaVu Sans, Bold';text-align:center;writing-mode:lr-tb;text-anchor:middle;fill:#10089a;fill-opacity:1;stroke:#ffffff;stroke-width:0.30000001;stroke-linecap:butt;stroke-linejoin:bevel;stroke-miterlimit:4;stroke-dasharray:none;stroke-opacity:0.76806084"
         id="path3420"
         inkscape:connector-curvature="0" />
      <path
         d="m 201.08838,179.12949 0,7.49268 -3.95508,0 0,-1.21948 0,-4.51538 q 0,-1.59302 -0.0769,-2.19727 -0.0659,-0.60425 -0.2417,-0.88989 -0.23072,-0.38452 -0.62622,-0.59326 -0.39551,-0.21973 -0.90088,-0.21973 -1.23047,0 -1.9336,0.95581 -0.70312,0.94482 -0.70312,2.62573 l 0,6.05347 -3.93311,0 0,-12.30469 3.93311,0 0,1.80176 q 0.88989,-1.07666 1.88965,-1.58203 0.99975,-0.51636 2.20825,-0.51636 2.13135,0 3.22998,1.30737 1.10962,1.30738 1.10962,3.80127 z"
         style="font-style:normal;font-variant:normal;font-weight:bold;font-stretch:normal;font-size:22.5px;line-height:125%;font-family:'DejaVu Sans';-inkscape-font-specification:'DejaVu Sans, Bold';text-align:center;writing-mode:lr-tb;text-anchor:middle;fill:#10089a;fill-opacity:1;stroke:#ffffff;stroke-width:0.30000001;stroke-linecap:butt;stroke-linejoin:bevel;stroke-miterlimit:4;stroke-dasharray:none;stroke-opacity:0.76806084"
         id="path3422"
         inkscape:connector-curvature="0" />
      <path
         d="m 213.12939,184.53477 q -0.81298,1.07666 -1.79077,1.58203 -0.97778,0.50537 -2.26318,0.50537 -2.2522,0 -3.72437,-1.7688 -1.47216,-1.77979 -1.47216,-4.52637 0,-2.75757 1.47216,-4.51538 1.47217,-1.7688 3.72437,-1.7688 1.2854,0 2.26318,0.50537 0.97779,0.50538 1.79077,1.59302 l 0,-1.82373 3.95508,0 0,11.06323 q 0,2.96631 -1.87866,4.52637 -1.86768,1.57105 -5.42725,1.57105 -1.15356,0 -2.23022,-0.17579 -1.07666,-0.17578 -2.16431,-0.53833 l 0,-3.06518 q 1.03272,0.59326 2.02149,0.87891 0.98877,0.29663 1.98852,0.29663 1.9336,0 2.83448,-0.84595 0.90087,-0.84595 0.90087,-2.64771 l 0,-0.84594 z m -2.59277,-7.65747 q -1.21948,0 -1.90063,0.90087 -0.68116,0.90088 -0.68116,2.54883 0,1.6919 0.65918,2.5708 0.65918,0.86792 1.92261,0.86792 1.23047,0 1.91162,-0.90088 0.68115,-0.90087 0.68115,-2.53784 0,-1.64795 -0.68115,-2.54883 -0.68115,-0.90087 -1.91162,-0.90087 z"
         style="font-style:normal;font-variant:normal;font-weight:bold;font-stretch:normal;font-size:22.5px;line-height:125%;font-family:'DejaVu Sans';-inkscape-font-specification:'DejaVu Sans, Bold';text-align:center;writing-mode:lr-tb;text-anchor:middle;fill:#10089a;fill-opacity:1;stroke:#ffffff;stroke-width:0.30000001;stroke-linecap:butt;stroke-linejoin:bevel;stroke-miterlimit:4;stroke-dasharray:none;stroke-opacity:0.76806084"
         id="path3424"
         inkscape:connector-curvature="0" />
      <path
         d="m 230.49878,174.702 0,2.98828 q -1.26343,-0.52734 -2.43897,-0.79101 -1.17553,-0.26367 -2.21923,-0.26367 -1.12061,0 -1.66993,0.28564 -0.53833,0.27466 -0.53833,0.85693 0,0.47242 0.4065,0.7251 0.41748,0.25269 1.48315,0.37354 l 0.69214,0.0989 q 3.02124,0.38453 4.06494,1.26343 1.0437,0.87891 1.0437,2.75757 0,1.96655 -1.45019,2.95532 -1.4502,0.98877 -4.32861,0.98877 -1.21949,0 -2.52686,-0.19775 -1.29639,-0.18677 -2.66968,-0.57129 l 0,-2.98828 q 1.17554,0.57129 2.40601,0.85693 1.24145,0.28565 2.51587,0.28565 1.15356,0 1.73584,-0.31861 0.58227,-0.3186 0.58227,-0.94482 0,-0.52735 -0.40649,-0.78003 -0.39551,-0.26367 -1.59302,-0.4065 l -0.69214,-0.0879 q -2.62573,-0.32959 -3.68042,-1.21948 -1.05469,-0.88989 -1.05469,-2.70263 0,-1.95557 1.34034,-2.9004 1.34033,-0.94482 4.10888,-0.94482 1.08765,0 2.28516,0.1648 1.19751,0.16479 2.60376,0.51635 z"
         style="font-style:normal;font-variant:normal;font-weight:bold;font-stretch:normal;font-size:22.5px;line-height:125%;font-family:'DejaVu Sans';-inkscape-font-specification:'DejaVu Sans, Bold';text-align:center;writing-mode:lr-tb;text-anchor:middle;fill:#10089a;fill-opacity:1;stroke:#ffffff;stroke-width:0.30000001;stroke-linecap:butt;stroke-linejoin:bevel;stroke-miterlimit:4;stroke-dasharray:none;stroke-opacity:0.76806084"
         id="path3426"
         inkscape:connector-curvature="0" />
      <path
         d="m 241.0127,174.31748 3.82324,0 2.06543,8.48145 2.07641,-8.48145 3.28492,0 2.06543,8.39356 2.07641,-8.39356 3.82324,0 -3.24096,12.30469 -4.29566,0 -2.07641,-8.45947 -2.06543,8.45947 -4.29566,0 -3.24096,-12.30469 z"
         style="font-style:normal;font-variant:normal;font-weight:bold;font-stretch:normal;font-size:22.5px;line-height:125%;font-family:'DejaVu Sans';-inkscape-font-specification:'DejaVu Sans, Bold';text-align:center;writing-mode:lr-tb;text-anchor:middle;fill:#10089a;fill-opacity:1;stroke:#ffffff;stroke-width:0.30000001;stroke-linecap:butt;stroke-linejoin:bevel;stroke-miterlimit:4;stroke-dasharray:none;stroke-opacity:0.76806084"
         id="path3428"
         inkscape:connector-curvature="0" />
      <path
         d="m 268.75317,176.83335 q -1.30737,0 -1.99951,0.94482 -0.68115,0.93384 -0.68115,2.70264 0,1.7688 0.68115,2.71362 0.69214,0.93384 1.99951,0.93384 1.2854,0 1.96656,-0.93384 0.68115,-0.94482 0.68115,-2.71362 0,-1.7688 -0.68115,-2.70264 -0.68116,-0.94482 -1.96656,-0.94482 z m 0,-2.8125 q 3.17505,0 4.95484,1.71387 1.79077,1.71386 1.79077,4.74609 0,3.03223 -1.79077,4.74609 -1.77979,1.71387 -4.95484,1.71387 -3.18603,0 -4.98779,-1.71387 -1.79077,-1.71386 -1.79077,-4.74609 0,-3.03223 1.79077,-4.74609 1.80176,-1.71387 4.98779,-1.71387 z"
         style="font-style:normal;font-variant:normal;font-weight:bold;font-stretch:normal;font-size:22.5px;line-height:125%;font-family:'DejaVu Sans';-inkscape-font-specification:'DejaVu Sans, Bold';text-align:center;writing-mode:lr-tb;text-anchor:middle;fill:#10089a;fill-opacity:1;stroke:#ffffff;stroke-width:0.30000001;stroke-linecap:butt;stroke-linejoin:bevel;stroke-miterlimit:4;stroke-dasharray:none;stroke-opacity:0.76806084"
         id="path3430"
         inkscape:connector-curvature="0" />
      <path
         d="m 287.50684,177.66831 q -0.51636,-0.2417 -1.03272,-0.35156 -0.50537,-0.12085 -1.02173,-0.12085 -1.51611,0 -2.34009,0.97778 -0.81298,0.9668 -0.81298,2.77954 l 0,5.66895 -3.93311,0 0,-12.30469 3.93311,0 0,2.02149 q 0.75805,-1.2085 1.73584,-1.75782 0.98877,-0.5603 2.36206,-0.5603 0.19775,0 0.42846,0.022 0.23072,0.011 0.67017,0.0659 l 0.011,3.55957 z"
         style="font-style:normal;font-variant:normal;font-weight:bold;font-stretch:normal;font-size:22.5px;line-height:125%;font-family:'DejaVu Sans';-inkscape-font-specification:'DejaVu Sans, Bold';text-align:center;writing-mode:lr-tb;text-anchor:middle;fill:#10089a;fill-opacity:1;stroke:#ffffff;stroke-width:0.30000001;stroke-linecap:butt;stroke-linejoin:bevel;stroke-miterlimit:4;stroke-dasharray:none;stroke-opacity:0.76806084"
         id="path3432"
         inkscape:connector-curvature="0" />
      <path
         d="m 289.48438,169.52744 3.9331,0 0,9.30542 4.52637,-4.51538 4.57031,0 -6.00952,5.64697 6.48193,6.65772 -4.76806,0 -4.80103,-5.13062 0,5.13062 -3.9331,0 0,-17.09473 z"
         style="font-style:normal;font-variant:normal;font-weight:bold;font-stretch:normal;font-size:22.5px;line-height:125%;font-family:'DejaVu Sans';-inkscape-font-specification:'DejaVu Sans, Bold';text-align:center;writing-mode:lr-tb;text-anchor:middle;fill:#10089a;fill-opacity:1;stroke:#ffffff;stroke-width:0.30000001;stroke-linecap:butt;stroke-linejoin:bevel;stroke-miterlimit:4;stroke-dasharray:none;stroke-opacity:0.76806084"
         id="path3434"
         inkscape:connector-curvature="0" />
    </g>
  </g>
  <g
     inkscape:groupmode="layer"
     id="layer4"
     inkscape:label="Trademark"
     transform="translate(0,-0.01776053)">
    <g
       style="font-style:normal;font-weight:normal;font-size:12px;font-family:Dialog;color-interpolation:auto;fill:#000000;fill-opacity:1;stroke:#000000;stroke-width:1;stroke-linecap:square;stroke-linejoin:miter;stroke-miterlimit:10;stroke-dasharray:none;stroke-dashoffset:0;stroke-opacity:1;color-rendering:auto;image-rendering:auto;shape-rendering:auto;text-rendering:auto"
       id="g4901"
       transform="matrix(0.0385,0,0,0.0385,290.30522,130.75455)">
      <g
         id="g4891">
        <g
           id="g4893">
          <path
             id="path4895"
             d="m 247.9219,294.3281 -17.5781,0 0,-96.1875 -0.5626,0 -28.6874,96.1875 -17.2969,0 -30.2344,-97.7343 -0.7031,0 0,97.7343 -17.4375,0 0,-114.6093 28.125,0 28.5469,91.5468 0.5624,0 27.7032,-91.5468 27.5625,0 0,114.6093 z m -125.5781,-97.7343 -37.4063,0 0,97.7343 -18.9844,0 0,-97.7343 -37.125,0 0,-16.875 93.5157,0 0,16.875 z"
             inkscape:connector-curvature="0"
             style="stroke:none" />
        </g>
      </g>
    </g>
  </g>
</svg>
